<svg xmlns="http://www.w3.org/2000/svg" width="253.592" height="33.716" viewBox="0 0 253.592 33.716">
  <g id="Group_47" data-name="Group 47" transform="translate(-101.297 -188.32)">
    <g id="Group_7" data-name="Group 7">
      <path id="Path_7" data-name="Path 7" d="M103.823,217.293c.2-.006.322-.1.267-.215s-.057-.38.178-.222.669.853.707.7.219-.606.256-.43.328.491.593.442a6.026,6.026,0,0,1,1.719.189l.424-.03a2.353,2.353,0,0,1,.607.125c.244.053.605.041.709.169.242.3.363-.122.615-.013l.219.1a3.077,3.077,0,0,1,1.317.037l.324,0c.446.005.952-.214,1.325-.1l.516.154a10.653,10.653,0,0,1,2.082-.341l.661.06a3.433,3.433,0,0,0,1.928-.179,1.353,1.353,0,0,1,.92,0,.688.688,0,0,0,.616.008c.31-.107.734-.491,1.122-.034a.33.33,0,0,0,.235-.036c.184-.311.4.062.582-.023a2.527,2.527,0,0,1,.657-.295l.206-.027a4.531,4.531,0,0,0,1.463.032,13.162,13.162,0,0,0,2.184-.528l.2.133a.752.752,0,0,0,.83-.053,4.275,4.275,0,0,1,1.061-.3,3.184,3.184,0,0,1,1.1-.2c.4.063.674-.286,1.044-.114.038.018.078.078.095.073.4-.129.678-.532,1.213-.332l1.29-.136.4-.182a11.579,11.579,0,0,1,2.059-.57l.63-.081c.259-.033.564.045.524-.316a.471.471,0,0,1,.3-.12l.66.378a7.4,7.4,0,0,1,1.3-.874,7.477,7.477,0,0,0,1.2-.645c.178-.157,1.252-.042,1.75-.131a17.915,17.915,0,0,0,2.369-1.439l.678.032.37.017c.489-.247.533-.84.1-1.319l-.21-.451a10.234,10.234,0,0,1-.647-1.538,8.207,8.207,0,0,1-.569-3.552l.133-.751c.068-.83.184-1.841.26-2.246l-.094-.406a2.415,2.415,0,0,1,.243-1.221l.133-.39c.221-.412.485-.886.587-1.054a5.793,5.793,0,0,0,.423-.949c.041-.183.638-.507.7-.6l.041-.093.278-.645a23.32,23.32,0,0,1,2.165-2.04l.215-.471c.161-.352.671-.326.752-.73.044-.217.585-.363.89-.553a1.694,1.694,0,0,0,.38-.312c.118-.138.16-.332.3-.439.094-.069.257.306.467.04.124-.158.609.012.5-.362l1.265-.857.546-.324c.658-.265,1.7-.719,2.3-1.01l.5-.315a2.375,2.375,0,0,1,.933-.319,11.372,11.372,0,0,0,1.489-.518c.427-.14.851-.376,1.343-.122a.713.713,0,0,0,.267.005h.564a7.1,7.1,0,0,1,2.178-.048l.553.041.558.041c.606.084,1.341.153,1.634.154a14.575,14.575,0,0,1,1.608.681,15.748,15.748,0,0,1,2.829,1.8l.07.489.057.4a5.042,5.042,0,0,1,.892,1.1l.165.311c.18.343.338.694.5,1.043.044.1.026.237.105.289a6.6,6.6,0,0,1,.634.328c.158.134-.231.364.1.561.161.1.176.372.225.571a6.191,6.191,0,0,1,.308,1.468l-.006.555c-.132.613-.5,1.856-.812,2.762l-.285.82-.209.6a19.071,19.071,0,0,0-1.58,1.709l-.483.223-.417.192a5.8,5.8,0,0,1-1.225,1.194,20.025,20.025,0,0,0-1.618,1.308c-.222.213-.915.669-.805.834s-.825.314-1.207.507-2,1.871-3.432,2.817l-1.372.783c-1.7.968-3.468,1.858-5.216,2.77l-.314.163c-.385.129-.122.5.585.826a39.821,39.821,0,0,0,4.57,1.358l.945.172.549.1a6.434,6.434,0,0,1,1.627.046c.278.076,1.268-.036,1.517,0l.206.084c.262.106.359-.363.643-.1a.246.246,0,0,0,.185.028c.152-.05,1.523-.252,1.69-.262.13-.007.26-.1.383-.093.647.042,1.281-.594,1.945-.026l.039.032c.17-.064.825-.228,1.456-.363s2.272-.666,2.146-1.03l.555.42.333.252c.338-.117,1-.323,1.48-.456s2.114-.659,2.638-.736l.346-.211c.376-.229.727.1.739.067l.3-.891c.983-.051,1.854-.093,1.936-.093a3.91,3.91,0,0,1,.549.106c.14.038.617-.548.993-.529a10.5,10.5,0,0,0,2.353-.734l.546-.163a2.913,2.913,0,0,1,1.212-.308c.192.018.406-.237.637-.314l.129-.043c.189.043.455-.167.591-.466l.448.343c.043.032.423-.292.683-.364l.211-.058a3.56,3.56,0,0,0,1.029-.145l.14-.24a.48.48,0,0,1,.329-.22c.48.028,1.2.009,1.4-.246l.422-.533a16.368,16.368,0,0,0,1.592-.535l.157-.011c.336-.023.725.069.752-.373a.73.73,0,0,1,.353-.071c.486.016.83-.069.959-.529.071-.253.3.064.334.041l.336-.254c.435-.195,1.335-.584,2-.865l.625-.124.561-.112c.512-.255,1.362-.644,1.889-.866l.437-.266c.188-.114.648.3.622-.238-.005-.1.486-.208.749-.313l.3-.122a8.481,8.481,0,0,0,1.407-.495c.427-.2,2.085-.867,2.691-1.19a26.72,26.72,0,0,1,2.924-.806,12.811,12.811,0,0,1,1.3-.569c.263-.055,1.085-.481,1.327-.537a4.966,4.966,0,0,1,1.143.138c.13.021.284-.026-.125-.172l.111-.391c.071-.246.195-.3.44-.237.157.04.4.207.424.187l.811-.763a16.584,16.584,0,0,0,2.016.172c-.122-.041-.183-.228.1-.335a13.6,13.6,0,0,1,1.82-.484l.258-.184.287-.205a6.028,6.028,0,0,0,1.877-.6h1.235a1.235,1.235,0,0,1,1.055-.278c.241.109.855-.017.76-.346l.6-.074c.264-.032.48-.164.733.015l.037.026c.11-.039.809-.363,1.553-.72l.614.047c.327.025.664.221.96.177a3.158,3.158,0,0,0,.852-.44,6.222,6.222,0,0,1,.88-.4l.217-.071a2.508,2.508,0,0,1,.888.347l.024-.385c0-.048.377-.1.583-.117l.64-.05a5.821,5.821,0,0,1,1.543.025,1.477,1.477,0,0,0,.325.26.217.217,0,0,0,.056-.216c-.029-.1-.06-.426.016-.444a2.77,2.77,0,0,1,.817.388l.083-.524a.72.72,0,0,1,.427-.038c.239.245.334-.015.5-.043.12-.02.275.167.429.187l.154.02c.174-.058.516-.2.761-.31a6.456,6.456,0,0,1,1.833-.417l.395-.227a1.1,1.1,0,0,1,1.205-.011.23.23,0,0,0,.183-.01l.548-.6c.766.218,1.282.413,1.146.434s-.464.159-.189.225l.082.092c.249.277.339-.047.494-.053.274-.012.295-.205.418-.28l.339-.208c.632-.164.974-.133.761.067l-.03.1-.025.084a.529.529,0,0,0,.5.147l.043-.08.329-.6c.642-.042,1.38-.107,1.641-.145l.126.044.454.158a10.432,10.432,0,0,0,1.2-.349c.2-.085.868.131,1.022.1a6.424,6.424,0,0,0,.758-.057c.088-.059.468-.2.6-.131a2.29,2.29,0,0,0,.883.188,12.737,12.737,0,0,0,1.629-.577l.384.062.821.131a6.693,6.693,0,0,1,2.408-.261l.507.048.285.027a3.476,3.476,0,0,1,1.166-.087,7.732,7.732,0,0,0,1.869-.329l.3.2.315.207a3.119,3.119,0,0,0,.78-.2l.027.014c.772.421,1.662.018,2.453.235l.273.076c.278.159.585.227.684.151a1.983,1.983,0,0,1,1.254-.011c.446.182,2.586.562,3.753.83l1.036.272c.423.112.826.3,1.273.423l.5.135c.458.358,1,.791,1.216.962a9.115,9.115,0,0,1,.837.752c.036.074,0,.42.028.534s.676.266.854.306v.041l.006.4a1.534,1.534,0,0,0,1.258-.061c.347-.2,1.56.219,1.764.235a3.65,3.65,0,0,1,1.3.084l.368-.282.053-.041c.1,0,.416-.044.7-.091a6.287,6.287,0,0,1,1.288.13c.144.027.511.188.618.2s1.181-.026,2.123-.057l.853.049a1.643,1.643,0,0,0,.737.006,1.5,1.5,0,0,1,1.025.045l.308.179c.315-.018.816-.034,1.113-.036l.27.009c.262.01.665-.04.755.071l.248.3a5.573,5.573,0,0,1,.675-.474c.176-.1.938.339,1.287.424l.335.008.306.006a5.524,5.524,0,0,1,.913-.091c.184.007.952.1,1.327.147l.339.044.421.054c.459.075,1.018.163,1.242.2a8.545,8.545,0,0,0,1.355-.093c.279-.043,1.2.067,1.664.037s2.25.471,3.138.475l.745.232c.419.13.635-.348,1.046-.1l.256.157a2.1,2.1,0,0,0,.963-.009l.158-.026c.321-.053.734-.218.751.292,0,.02.368.094.429.041l.344-.3a8.229,8.229,0,0,1,1.219.356c.233.1.977-.148,1.137-.071s.768.261.879.183.436-.182.383.005.744-.021,1.011-.009l.25.013.755.038a4.041,4.041,0,0,1,2.086.559l.349-.345c.4-.392.6.1.9.08a1.241,1.241,0,0,1,.977.212l.04.036a1.081,1.081,0,0,0,.466-.246c.134-.119.987.137,1.354.185l.344.029c.34.028.724-.1.982.21a.344.344,0,0,0,.25.007l.373-.592a9.587,9.587,0,0,1,1.388.651,11.549,11.549,0,0,0,1.787.034l.235.173c.386.286.516-.119.765-.044.274.083.71.276.807.2.355-.284.6.069.886.028a1.71,1.71,0,0,1,.853.182l.242.089a12.022,12.022,0,0,1,1.826,0c.6.046,2.339.219,2.538.281s.689.075.852.15a3.594,3.594,0,0,0,.945-.065,3.3,3.3,0,0,1,1.315.505l.37-.464.016-.02a10.934,10.934,0,0,0,1.654.4c.624.108,2.5.331,2.751.412a4.139,4.139,0,0,0,.922.049c.169.009.886.093,1.254.166l.249.163c.353.23.583.491,1.093.149l.189-.127a3.924,3.924,0,0,1,1.349.485l.167.23.33.455c.538-.041,1.156-.09,1.374-.108s.9-.037.919.084a.9.9,0,0,0,.72.461c.351,0,.938.691.707.594a2.549,2.549,0,0,0-.853-.219c-.058.052-.206.375-.061.482l.152.011c.519.037.438.323.467.606.024.237-.383.418-.037.718l.191.166a8.094,8.094,0,0,1-.062,1.232c-.048.33-1.1.388-1.281.409s-.961.022-1.314.042-1.555-.208-1.879-.171-1.452-.265-1.756-.247a6.285,6.285,0,0,0-1.246.006c-.228.1-1.191-.329-1.814-.378s-2.783-.213-3.411-.275a24.387,24.387,0,0,1-2.661-.527l-.192.02-1.382.139c-1.486-.21-3.113-.451-3.616-.536l-.462-.047a3.379,3.379,0,0,1-1.258-.2l-.265-.129-1.3.16c-.279.034-1.269-.21-1.557-.175s-1.33-.277-1.735-.316a16.94,16.94,0,0,0-2.153.086l-.115-.108c-.26-.245-.484,0-.708-.062a4.308,4.308,0,0,0-.742-.135c-.313-.022-.636.023-.945-.014-.241-.029-.549-.254-.687-.191-.546.252-1.032-.106-1.55-.029a4.2,4.2,0,0,1-.945,0l-.269-.021a7.171,7.171,0,0,1-.9-.251l-.253.04a.985.985,0,0,1-.877-.141l-.067-.06a6.951,6.951,0,0,1-1.5.261,7.353,7.353,0,0,1-1.8-.476c-.048,0-.748-.035-1.448-.069s-2.839-.213-3.206-.269-1.559-.251-1.834-.3l-.252-.023c-.42-.038-.816.169-1.272.012-.386-.132-.875.119-1.277-.152l-.4-.268a13.988,13.988,0,0,1-1.683-.052c-.393-.046-2.029-.049-2.715-.1s-2.657-.2-2.854-.166a3.557,3.557,0,0,1-.969-.139c-.175-.058-1.08.185-1.649.225a19.846,19.846,0,0,1-2.508-.459h-.266l-2.345,0c-2.58.005-5.051-.053-5.491-.126l-.327.325a.722.722,0,0,1-.514.012c-.219-.072-.38-.382-.658-.126l-.31.285a1.7,1.7,0,0,0-.436,1.159l-.238.244c-.047.048.086.2.1.3l.044.261a.762.762,0,0,0-.557.037l.006.062.013.141a1.376,1.376,0,0,1-.183.839c-.16.311-1.018,1.05-1.422,1.015l-.016.359a.992.992,0,0,1-.452.739l-.077.066a3.562,3.562,0,0,0,.067.759l-.392.161-.107.044c-.076.108-.317.393-.536.635a4.464,4.464,0,0,1-1.39.562l-.1.054-.109.058a3.621,3.621,0,0,0-.377.515c-.119.2-.547.555-.84.336l-.06.534-.025.221a.744.744,0,0,1-.556.288,5.673,5.673,0,0,0-1.361.333c-.507.176-2.079.777-2.416.867a22.356,22.356,0,0,1-2.227.315c-.562.047-2.536.451-3.2.525l-.6-.133-.373-.082c-.415.044-1.161.08-1.657.08h-.451c-.451,0-.9,0-1.353,0a.6.6,0,0,1-.257-.021c-.268-.17-.406-.517-.919-.227-.166.094-.567-.2-.944-.216-.662-.035-1.2-.523-1.934-.444-.027,0-.074-.113-.11-.174a1.784,1.784,0,0,1-.262-.46l-.079-.364c-.3.077-.48.033-.4-.1l-.08-.123c-.118-.182-.272-.349-.41-.522l-.32-.7.034-.193c-.074-.2-.26-.654-.413-1l-.133-.323a5.774,5.774,0,0,1-.366-.865,12.184,12.184,0,0,1-.269-1.669l-.027-.313a2.569,2.569,0,0,1,.306-.844,4.657,4.657,0,0,1,.759-.484,1.835,1.835,0,0,0,.659-.742l.137-.184c.16-.215.66-.129.668-.535l.005-.207a1.674,1.674,0,0,0,.711.087,7.435,7.435,0,0,0,.9-.433l.232-.077.231-.077c.3-.049.546-.2.546-.334s.161-.567.358-.567.751-.054.684-.12-.156-.24-.1-.295l.065-.017a.621.621,0,0,1,.268,0c.759.164,1.036-.354,1.433-.681.291-.241.322-.28.533.057l.24.386c.1-.228.259-.377.353-.332s.431.011.386-.066l-.059-.057-.327-.315c.3-.136,1.079-.481,1.726-.768l.6-.251a1.287,1.287,0,0,1,.584-.163,2.7,2.7,0,0,0,1.232-.255l.284-.094a1.315,1.315,0,0,0,.622-.035l.058-.057c.074-.072.134-.223.2-.222a8.235,8.235,0,0,0,1.826-.4l.561-.119c.66-.073,1.585-.2,2.055-.283l.366-.133c.308-.111.449-.241.78-.018l.222.15a1.016,1.016,0,0,1,.85-.09c.142.108.48-.255.545-.365s.644.014.943.025l.121-.27.028-.063c.11-.071-.063-.159-.384-.195a3.742,3.742,0,0,0-1.46-.035l-.3-.2a3.584,3.584,0,0,0-.858-.434l-.273-.087a2.738,2.738,0,0,0-1.047.157c-.239.106-1.727-.29-2.887-.289s-4.4,0-4.642-.108-.925.323-1.1.391-1.139-.166-1.614-.158l-.428.094-.477.1a15,15,0,0,0-1.807.263l-.4-.169-.185-.079c-.141-.186-.285-.089-.322.216l-.493-.128-.468-.12a11.61,11.61,0,0,1-1.928.15l-.468.306-.161.105a7.188,7.188,0,0,0-1.875-.137c-.625.037-2.179.489-2.212.413a.285.285,0,0,0-.372-.067c-.148.093-.681.279-.992.474l-.094-.068c-.431-.311-.821-.111-1.234-.038l-.05.008a1.768,1.768,0,0,0-.908.049c-.427.095-1.929.337-2.354.425a5.531,5.531,0,0,1-2.02.035l-.223.387c-.09.158-.5.229-.782.271-.306.045-.63,0-.945.016a.541.541,0,0,0-.337.118,1.074,1.074,0,0,1-1.06.308l-.471-.073a16.175,16.175,0,0,1-2.372.6c-.88.159-3.932.878-4.872,1.082l-.862.16a3.582,3.582,0,0,0-1.747.562.612.612,0,0,1-.338.1c-.259-.333-.521-.053-.731.017a6.106,6.106,0,0,1-1.808.462l-.505.018a5.919,5.919,0,0,1-1.6.658,12.843,12.843,0,0,0-1.859.662c-.327.153-1.464.433-1.749.523s-2.134.731-3.533,1.2l-1.27.43a1.342,1.342,0,0,0-.447.174l-.332.3a8.676,8.676,0,0,0-1.209.469c-.189.108-1,.251-1.2.348l-.15.123a1.127,1.127,0,0,1-.912.357,1.29,1.29,0,0,0-.571.187,3.5,3.5,0,0,1-.754.374l-1.111.2a22.518,22.518,0,0,1-2.62,1.345,20.178,20.178,0,0,0-1.946.953c-.189.117-.957.286-1.168.368a12.115,12.115,0,0,0-1.461.667l-.346.207a.593.593,0,0,1-.359.078l-.387-.078c-.322.168-1.395.631-2.386,1.028l-1,.159c-.038.006-.066.046-.1.061l-.6.242a14.716,14.716,0,0,0-1.8.729c-.3.169-1.79.427-2.4.6s-2.433,1.043-2.9,1.192-2.39.666-3.205.849l-.608.321-.514.271a6.879,6.879,0,0,0-1.529.327c-.256.115-1.625.426-2.335.6l-.6.207c-.535.185-1.106-.067-1.625.3-.334.234-.98.161-1.478.253-.988.182-1.97.382-2.953.577l-.08.016c-.083.034-.929.125-1.88.2l-.863.086c-.552.055-1.1.149-1.647.215s-1.157-.157-1.652.217c-.049.037-.194-.022-.262.009-.434.2-.765-.5-1.312-.05l-.227.185a6.791,6.791,0,0,1-1.834-.49l-.45.205-.407.186a4.766,4.766,0,0,0-1.606-.223l-.413-.236c-.211-.121-.614-.032-.929-.018l-.306.012a.881.881,0,0,0-.7-.371l-.235.021c-.184.015-.382.215-.554.02-.306-.349-.744-.293-1.176-.368a14.5,14.5,0,0,1-1.873-.562l-.156-.049c-.157-.053-.249-.173-.205-.266s.139-.35.112-.363a.54.54,0,0,0-.3.106,1.178,1.178,0,0,1-.969.012l-.192-.185-.1-.1c-.053-.15-.159-.24-.237-.2s-.3-.079-.385-.231-.407-.578-.437-.489-.189.287-.275.2a3.358,3.358,0,0,0-.8-.423l-.236-.067c-.595-.17-.706-.3-.97-1.03l-.046-.129c-.145-.147-.352-.1-.46.114l-.256-.165-.093-.06a5.754,5.754,0,0,0-1.29.217l-.5.176-.993.353c-1.105.366-2.379.775-2.831.909s-2.08.594-2.616.715-2.321.525-2.777.687-1.943.3-2.154.41l-.185-.009-.665-.033c-.691.139-1.807.341-2.479.449s-2.77.365-3.134.488l-.306-.034-.347-.038c-.374.051-.839.135-1.035.187s-1.9.262-3.333.483l-1.333-.174-.382-.049a9.87,9.87,0,0,0-1.474.25l-.38.019c-.449.022-.9,0-1.352,0h-.406a11.756,11.756,0,0,1-1.882-.185l-.614.146-.48.114c-.64-.151-1.376-.331-1.635-.4a12.823,12.823,0,0,1-1.545-.146l-.313.359-.034.039a6.048,6.048,0,0,1-.843-.027,15.744,15.744,0,0,1-1.673-.672l-.251-.077-.383-.119c-.044.267-.2.454-.344.415s-.8-.336-1.188-.518l-.124-.245-.266-.528a2.162,2.162,0,0,1-1.4.429l-.222-.418a.406.406,0,0,0-.319-.138c-.679.176-.864-.4-1.322-.563-.1-.033-.207-.246-.166-.292.132-.149.193-.233-.1-.253a2.134,2.134,0,0,1-.4-.009c-.156-.045-.28-.182-.435-.205-.338-.05-.357-.254-.2-.374l.376-.284a5.492,5.492,0,0,1-.868-.4c-.184-.115-.912-.276-1.053-.551l-.127-.251c-.158-.313.112-.54.27-.778l.025-.037a2.039,2.039,0,0,1,.911.933l.257.4Zm49.029-8.752c-.219-.133-.253-.262-.075-.287a7.7,7.7,0,0,0,1.336-.4l.055-.305c.079-.436.607-.428.873-.674a5.172,5.172,0,0,1,.925-.554,7.411,7.411,0,0,1,.928-.523,2.389,2.389,0,0,0,1.4-1.165c.1-.223.125-.4.488-.352.29.041.374-.082.391-.309,0-.061.34-.078.406-.17s-.069-.356-.038-.365l.614-.178c.341-.456.74-.963.886-1.128s1.258-.847,1.985-1.317l.5-.6.379-.452c.622-.349,1.073-.757,1-.908l.052-.044.106-.089a2.106,2.106,0,0,0,.788-.733c.252-.357.975-1.531,1.11-1.788a7.546,7.546,0,0,0,.509-1.591c.037-.354-1.067-.958-1.207-1.027a1.369,1.369,0,0,0-.848-.038c-.216.107-1.195.268-1.745.417s-2.363.685-2.8.894a33.667,33.667,0,0,0-2.89,1.781l-.892.2c-.051.011-.051.134-.106.176-.264.2-.737.375-.769.594-.073.5-.686.232-.861.514-.028.046-.2.042-.215.083-.215.6-.949.842-1.335,1.312s-.693,1.018-1.135,1.488a6.559,6.559,0,0,0-.961,1.321c-.241.435-.607.805-.836,1.257l-.207.407a5.03,5.03,0,0,0-.714,1.054l.063.053c.381.32.305.469-.224.559-.075.013-.117.325-.1.491l.016.129a4.975,4.975,0,0,1,.034.929l-.294.342-.22.257a3.482,3.482,0,0,1-.217,1.142c-.1.177.4.666.409.845s1.047-.251,1.619-.638l.634-.212c.269-.09.555-.151.816-.254Zm124.306-2.9c.437-.122.6-.271.366-.33s-.881-.3-1.024-.23-.7.155-.849.248-.859-.1-1.211-.051-1.462.355-1.842.356-1.232.568-1.461.5l-.2.024c-.142.017-.239.225-.392.281-.087.031-.294-.139-.367-.1l-.331.155a2.607,2.607,0,0,1-1.025.375,12.855,12.855,0,0,0-1.943.752l-.563.143-.542.137c-.217.29-.547.442-.733.337l-.12.029-.275.067c-.272.144-.824.477-1.225.739s-1.832.893-2.1,1.049l-.264.1-.258.1a3.121,3.121,0,0,1-.382.391l-.012.03c-.025.066-.072.161-.036.2l.066.072a3.243,3.243,0,0,0,.632.136,5.863,5.863,0,0,0,1.45-.025l.278-.067.343-.084a7.459,7.459,0,0,1,1.519.015l.435-.092.333-.07a1.558,1.558,0,0,0,.762.47l.086-.064.432-.324c.433-.036,1.091-.077,1.461-.091l.326-.06c.367-.068.768-.293.847.261,0,.02.37.067.428.009l.257-.256c.227-.3.492-.495.59-.431s.243.25.138.292-.151.1.316-.031,1.413-.75,1.449-.57.3.44.527.252a11.513,11.513,0,0,1,1.025-.838c.164-.073.665-.216.621-.325s.594-.582.941-.836l.159-.339c.089-.189.19-.475.36-.518.363-.09.417-.224.474-.506s.456-.532.487-.812Z" fill="#becd00"/>
    </g>
    <g id="Group_8" data-name="Group 8">
      <path id="Path_8" data-name="Path 8" d="M102.19,216.045a.657.657,0,0,1-.754-.51c-.107-.365-.232-1.257-.036-1.154s.594.512.536.68-.014.6.261.494l.182-.028c.052-.009.177.128.2.21a.23.23,0,0,1-.127.21Z" fill="#becd00"/>
    </g>
  </g>
</svg>
